<svg id="svg" version="1.1" xmlns="http://www.w3.org/2000/svg" style="display: block;" viewBox="0 0 512 512"><path d="M0 0 C168.96 0 337.92 0 512 0 C512 168.96 512 337.92 512 512 C343.04 512 174.08 512 0 512 C0 343.04 0 174.08 0 0 Z " transform="translate(0,0)" style="fill: #873BC7;"/><path d="M0 0 C0.41052127 4.58563461 0.81937095 9.17141442 1.22680664 13.75732422 C1.36504186 15.31074855 1.50369945 16.86413537 1.64282227 18.41748047 C2.04705944 22.93267837 2.44330024 27.44844821 2.82684326 31.9654541 C2.97697723 33.72948857 3.13096233 35.49319447 3.28564453 37.25683594 C5.26500198 61.93101787 5.21451547 86.75059205 5.24023438 111.48632812 C5.24460288 115.06097709 5.25847207 118.63538252 5.28125 122.20996094 C5.47288857 152.99550987 4.96348863 184.09705382 -0.57006836 214.47851562 C-0.95422325 216.59200566 -1.30934865 218.70918516 -1.66210938 220.828125 C-6.62799509 249.90118489 -16.74670529 283.55410305 -41.43701172 302.078125 C-56.43014576 312.65813138 -73.04757777 316.43546349 -91.1875 316.375 C-91.82895966 316.37412384 -92.47041931 316.37324768 -93.13131714 316.37234497 C-111.42486549 316.28987347 -126.1846364 312.21223678 -139.84765625 299.33984375 C-158.70344804 278.84144215 -165.39882533 249.96952324 -168 223 C-168.09168457 222.07558105 -168.18336914 221.15116211 -168.27783203 220.19873047 C-169.83616882 203.74786205 -170.20903452 187.33174647 -170.25 170.8125 C-170.25517639 169.87323669 -170.26035278 168.93397339 -170.26568604 167.96624756 C-170.36834968 144.34277537 -168.03430168 120.92864906 -165.45043945 97.47387695 C-165.18909139 95.10064281 -164.93238382 92.72698007 -164.67993164 90.3527832 C-163.30868766 77.45996691 -161.85788725 64.63545183 -159.37075806 51.90365601 C-158.99137429 49.95571133 -158.62703174 48.0054452 -158.26635742 46.05395508 C-153.66605917 21.23874264 -153.66605917 21.23874264 -150.875 9.125 C-150.74101807 8.49005615 -150.60703613 7.8551123 -150.46899414 7.20092773 C-150.0546875 5.5078125 -150.0546875 5.5078125 -149 3 C-146.18227537 1.94153592 -143.94117391 1.95924162 -140.99755859 2.40551758 C-140.22350677 2.51926224 -139.44945496 2.6330069 -138.65194702 2.75019836 C-137.41270981 2.94539314 -137.41270981 2.94539314 -136.1484375 3.14453125 C-135.29319489 3.27437912 -134.43795227 3.40422699 -133.55679321 3.53800964 C-131.75243099 3.81416946 -129.94867536 4.09431807 -128.14550781 4.37817383 C-125.37996277 4.811722 -122.61218761 5.2279515 -119.84375 5.64257812 C-118.09098543 5.91302496 -116.33837531 6.18447508 -114.5859375 6.45703125 C-113.7557309 6.58108841 -112.92552429 6.70514557 -112.07015991 6.83296204 C-111.30241241 6.95616318 -110.53466492 7.07936432 -109.74365234 7.20629883 C-109.06732758 7.31146317 -108.39100281 7.4166275 -107.69418335 7.52497864 C-106 8 -106 8 -104 10 C-104.06752014 11.84503174 -104.06752014 11.84503174 -104.51977539 14.12207031 C-104.684151 14.98173401 -104.84852661 15.84139771 -105.0178833 16.72711182 C-105.20920837 17.66794617 -105.40053345 18.60878052 -105.59765625 19.578125 C-105.98881282 21.6080489 -106.37983909 23.63799791 -106.77075195 25.66796875 C-106.98172516 26.74095215 -107.19269836 27.81393555 -107.4100647 28.91943359 C-111.55263808 50.06653538 -114.92897363 71.19168868 -117.46923828 92.58496094 C-118.00149306 97.05263403 -118.57524637 101.51449833 -119.15234375 105.9765625 C-120.85833802 119.27852772 -122.42365365 132.48731911 -122.82421875 145.90625 C-122.90877163 148.60781027 -123.14130029 151.23036206 -123.50048828 153.90820312 C-124.20508596 160.11426062 -124.16431764 166.32587282 -124.16796875 172.5625 C-124.17119625 173.87980177 -124.17456133 175.19710321 -124.17805481 176.5144043 C-124.18401767 179.27458521 -124.18589824 182.03473499 -124.18530273 184.79492188 C-124.18522234 187.56972903 -124.19202747 190.34436804 -124.20581055 193.11914062 C-126.20792148 239.62883172 -126.20792148 239.62883172 -109.671875 281.34765625 C-103.51514605 287.43246079 -97.31267988 289.11578451 -88.8125 289.3125 C-78.3653075 289.17132172 -71.78533957 285.66884847 -64.31640625 278.46875 C-51.68466992 265.00625867 -46.64159345 246.46596939 -43.3125 228.6875 C-43.13328003 227.76638428 -43.13328003 227.76638428 -42.95043945 226.82666016 C-40.02723077 210.00709736 -40.83599558 192.51838776 -40.83274293 175.50647545 C-40.8320229 173.38159815 -40.82987082 171.25672695 -40.82724571 169.1318512 C-40.81803405 161.65674441 -40.81390472 154.18165524 -40.81469727 146.70654297 C-40.81529387 139.84208169 -40.80481373 132.97770006 -40.7889536 126.11325884 C-40.7756675 120.14047154 -40.77052212 114.16770953 -40.77115268 108.19490767 C-40.77140201 104.66342319 -40.76887918 101.13200933 -40.75797462 97.60054016 C-40.71462188 82.47997514 -40.99985977 67.42981869 -41.9128418 52.33398438 C-41.95332693 51.65343963 -41.99381206 50.97289488 -42.03552401 50.27172756 C-42.68138185 39.65274407 -43.82389997 29.17433676 -45.4140625 18.65234375 C-46.02037748 14.39144326 -46.10936937 10.30020462 -46 6 C-41.47802988 4.33063172 -37.22043744 3.48104914 -32.44140625 2.9296875 C-31.38033913 2.80075607 -31.38033913 2.80075607 -30.2978363 2.66921997 C-28.80983906 2.48984434 -27.32146974 2.31353118 -25.83276367 2.14013672 C-23.5717301 1.87607795 -21.3122525 1.6009145 -19.05273438 1.32421875 C-17.59903735 1.15037961 -16.14526352 0.97718132 -14.69140625 0.8046875 C-14.02452286 0.72346649 -13.35763947 0.64224548 -12.67054749 0.55856323 C-8.4181818 0.06996071 -4.28060712 -0.07130307 0 0 Z " transform="translate(228,95)" style="fill: #FEFDFE;"/><path d="M0 0 C0.63735077 -0.0010675 1.27470154 -0.00213501 1.93136597 -0.00323486 C12.27769532 0.02173551 21.32729387 1.12604267 30.8125 5.4375 C31.35600098 5.66743652 31.89950195 5.89737305 32.45947266 6.13427734 C40.19558843 9.42381438 46.54441956 13.88170143 52.8125 19.4375 C53.42609375 19.95699219 54.0396875 20.47648437 54.671875 21.01171875 C69.56220094 34.57011186 76.52237364 55.42444002 80.8125 74.4375 C81.06 75.46101563 81.3075 76.48453125 81.5625 77.5390625 C83.65869461 87.64155596 82.99060024 98.17344636 82.8125 108.4375 C79.12616366 109.57831554 75.46578197 109.65666891 71.640625 109.75390625 C70.9582074 109.77468735 70.27578979 109.79546844 69.57269287 109.81687927 C67.40272644 109.88202052 65.23264376 109.94109404 63.0625 110 C61.58722779 110.04321897 60.11196713 110.08683432 58.63671875 110.13085938 C55.02876356 110.23766532 51.42069197 110.33903144 47.8125 110.4375 C46.70402949 103.04290041 46.70402949 103.04290041 46.63671875 99.6328125 C46.02245027 80.2214523 41.62952546 58.9751413 27.8125 44.4375 C27.31621094 43.90125 26.81992187 43.365 26.30859375 42.8125 C19.47601338 36.23678355 9.77955733 31.06187642 0.25 30.75 C-14.13289707 31.65986697 -25.40996543 37.77758473 -35.25 48.09375 C-57.06989282 74.48878163 -62.24335812 113.97858187 -62.390625 146.96484375 C-62.39759399 148.02412582 -62.40456299 149.0834079 -62.41174316 150.17478943 C-62.42903474 153.57490056 -62.43546301 156.97484673 -62.4375 160.375 C-62.43808914 160.95435555 -62.43867828 161.53371109 -62.43928528 162.13062286 C-62.45241627 180.42977044 -61.94682935 198.32921346 -59.1875 216.4375 C-59.05359863 217.40026855 -58.91969727 218.36303711 -58.78173828 219.35498047 C-55.38957486 243.43728491 -48.24642066 272.90264944 -28.25 288.8125 C-19.82680607 294.67716954 -11.3923421 297.23039421 -1.1875 296.4375 C9.69699804 294.4766286 19.37218553 288.05610772 25.79296875 279.06445312 C32.33434543 269.32757634 35.80156733 258.69229642 38.8125 247.4375 C38.97588867 246.82970703 39.13927734 246.22191406 39.30761719 245.59570312 C42.28909231 234.11199895 43.3953414 222.19095469 44.8125 210.4375 C41.56179778 210.72163951 38.31212149 211.016276 35.0625 211.3125 C34.16144531 211.39113281 33.26039063 211.46976563 32.33203125 211.55078125 C25.42438257 212.18765666 18.63944155 213.21627664 11.8125 214.4375 C11.24106262 214.53951721 10.66962524 214.64153442 10.08087158 214.74664307 C5.16637041 215.6252552 0.25359678 216.5135257 -4.6574707 217.41113281 C-6.50170002 217.74778349 -8.34649412 218.08117711 -10.19140625 218.4140625 C-11.81284546 218.70917725 -11.81284546 218.70917725 -13.46704102 219.01025391 C-16.1875 219.4375 -16.1875 219.4375 -19.1875 219.4375 C-19.1875 208.2175 -19.1875 196.9975 -19.1875 185.4375 C13.4825 185.7675 46.1525 186.0975 79.8125 186.4375 C79.8125 218.83611825 79.8125 218.83611825 77.625 229.625 C77.39399622 230.84275789 77.16395642 232.06069899 76.93481445 233.27880859 C71.96404659 259.1218908 63.17467034 282.20253911 44.8125 301.4375 C44.26207031 302.06269531 43.71164062 302.68789063 43.14453125 303.33203125 C32.54701836 314.92387868 14.64236166 323.04143605 -0.96484375 323.7734375 C-25.71242542 324.20823428 -47.5583046 317.2836408 -65.85595703 300.28881836 C-97.49843546 269.53631642 -105.40879329 218.9562004 -106.28100586 176.84594727 C-106.33258339 173.04299116 -106.32919511 169.24069329 -106.3125 165.4375 C-106.31028442 164.75953369 -106.30806885 164.08156738 -106.30578613 163.38305664 C-106.28808823 158.73422642 -106.24712035 154.0859744 -106.1875 149.4375 C-106.17493164 148.45652344 -106.16236328 147.47554687 -106.14941406 146.46484375 C-105.75050434 124.6143601 -103.39886969 101.43634373 -97.1875 80.4375 C-96.97899414 79.71884766 -96.77048828 79.00019531 -96.55566406 78.25976562 C-90.72552724 58.5439183 -81.71372602 40.20343272 -67.1875 25.4375 C-66.42695313 24.6640625 -65.66640625 23.890625 -64.8828125 23.09375 C-47.42765601 6.38258379 -23.69053026 -0.00847425 0 0 Z " transform="translate(371.1875,94.5625)" style="fill: #FEFDFE;"/></svg>